<?xml version="1.0" encoding="utf-8"?>
<!-- Generator: Adobe Illustrator 24.3.0, SVG Export Plug-In . SVG Version: 6.00 Build 0)  -->
<svg version="1.1" id="Layer_1" xmlns="http://www.w3.org/2000/svg" xmlns:xlink="http://www.w3.org/1999/xlink" x="0px" y="0px"
	 viewBox="0 0 185.7 272.1" style="enable-background:new 0 0 185.7 272.1;" xml:space="preserve">
<style type="text/css">
	.st0{fill:#112A12;}
</style>
<path class="st0" d="M115.8,170.4c-1.6-2.6-2.6-4.8-2.3-5.1s16.6-10.2,36.3-22l35.8-21.4l-36.5-61c-20-33.5-37-60.9-37.9-60.9
	c-1.9,0.1-82.7,49.2-89.1,54.1c-7.1,5.5-16,19.7-19.4,30.5c-3.7,12.2-3.7,25.1-0.1,37.3c3.1,9.8,67.7,118.9,76.5,129.2
	c12.5,14.5,31.1,21.9,52.4,20.9c10.9-0.4,14-1.3,23.3-5.7c5.8-2.8,11.4-5.8,12.3-6.5c1.6-1-3.7-10.6-23.3-43
	C130.1,193.8,117.4,173,115.8,170.4z M69.4,180.5c-2.6,5.2-4.8,9.4-5.1,9.2s-9.5-15.9-20.8-34.8c-13.6-22.7-21.1-36.7-22.3-41.6
	c-3.4-15.1,1.3-30.8,12.3-41.6c3-2.8,20.1-14,38-24.8c29.3-17.7,32.8-19.6,34.5-17.4c2.4,3,20.1,32.3,20.1,33.3
	c0,0.3-10.4,6.8-23,14.5S79.4,91.8,78.4,92.6c-1.3,1.1-0.6,3.4,3.3,9.7c4.4,7.2,5.4,8.1,7.8,6.7c1.6-0.8,11.8-6.8,22.6-13.3
	s21-12.6,22.6-13.3c2.6-1.4,3.7-0.1,13.1,15.5c5.5,9.4,9.9,17.3,9.6,17.6s-15.9,9.5-34.6,20.7C84.7,158.6,77.1,165,69.4,180.5
	L69.4,180.5z M139.5,250.8c-0.4,0.6-6.4,0.9-13.1,0.9c-13.5,0-19.7-2.3-29.1-10.5c-15.6-13.8-18.3-40.6-5.8-58.6
	c2.1-3,4.1-5.4,4.7-5.4C97.7,177.3,140.4,250,139.5,250.8L139.5,250.8z"/>
</svg>
